<mxfile host="app.diagrams.net" agent="Mozilla/5.0 (X11; Linux x86_64) AppleWebKit/537.36 (KHTML, like Gecko) Chrome/126.0.0.0 Safari/537.36" version="28.0.6">
  <diagram id="Ht1M8jgEwFfnCIfOTk4-" name="Page-1">
    <mxGraphModel dx="1097" dy="608" grid="1" gridSize="10" guides="1" tooltips="1" connect="1" arrows="1" fold="1" page="1" pageScale="1" pageWidth="827" pageHeight="1169" math="0" shadow="0">
      <root>
        <mxCell id="0" />
        <mxCell id="1" parent="0" />
        <mxCell id="jZVaUwOg5UY3L9NAnvdq-71" value="AWS Cloud" style="points=[[0,0],[0.25,0],[0.5,0],[0.75,0],[1,0],[1,0.25],[1,0.5],[1,0.75],[1,1],[0.75,1],[0.5,1],[0.25,1],[0,1],[0,0.75],[0,0.5],[0,0.25]];outlineConnect=0;gradientColor=none;html=1;whiteSpace=wrap;fontSize=12;fontStyle=0;shape=mxgraph.aws4.group;grIcon=mxgraph.aws4.group_aws_cloud_alt;strokeColor=#232F3E;fillColor=none;verticalAlign=top;align=left;spacingLeft=30;fontColor=#232F3E;dashed=0;labelBackgroundColor=none;container=1;pointerEvents=0;collapsible=0;recursiveResize=0;" parent="1" vertex="1">
          <mxGeometry x="40" y="170" width="760" height="1040" as="geometry" />
        </mxCell>
        <mxCell id="ThEpB_MVJTsAIfFqs4QM-4" value="Region: us-east" style="points=[[0,0],[0.25,0],[0.5,0],[0.75,0],[1,0],[1,0.25],[1,0.5],[1,0.75],[1,1],[0.75,1],[0.5,1],[0.25,1],[0,1],[0,0.75],[0,0.5],[0,0.25]];outlineConnect=0;gradientColor=none;html=1;whiteSpace=wrap;fontSize=12;fontStyle=0;container=1;pointerEvents=0;collapsible=0;recursiveResize=0;shape=mxgraph.aws4.group;grIcon=mxgraph.aws4.group_region;strokeColor=#00A4A6;fillColor=none;verticalAlign=top;align=left;spacingLeft=30;fontColor=#147EBA;dashed=1;" vertex="1" parent="jZVaUwOg5UY3L9NAnvdq-71">
          <mxGeometry x="10" y="70" width="740" height="970" as="geometry" />
        </mxCell>
        <mxCell id="ThEpB_MVJTsAIfFqs4QM-5" value="VPC" style="points=[[0,0],[0.25,0],[0.5,0],[0.75,0],[1,0],[1,0.25],[1,0.5],[1,0.75],[1,1],[0.75,1],[0.5,1],[0.25,1],[0,1],[0,0.75],[0,0.5],[0,0.25]];outlineConnect=0;gradientColor=none;html=1;whiteSpace=wrap;fontSize=12;fontStyle=0;container=1;pointerEvents=0;collapsible=0;recursiveResize=0;shape=mxgraph.aws4.group;grIcon=mxgraph.aws4.group_vpc2;strokeColor=#8C4FFF;fillColor=none;verticalAlign=top;align=left;spacingLeft=30;fontColor=#AAB7B8;dashed=0;" vertex="1" parent="ThEpB_MVJTsAIfFqs4QM-4">
          <mxGeometry x="10" y="60" width="720" height="910" as="geometry" />
        </mxCell>
        <mxCell id="ThEpB_MVJTsAIfFqs4QM-13" value="AZ us-east-1a" style="fillColor=none;strokeColor=#147EBA;dashed=1;verticalAlign=top;fontStyle=0;fontColor=#147EBA;whiteSpace=wrap;html=1;align=left;" vertex="1" parent="ThEpB_MVJTsAIfFqs4QM-5">
          <mxGeometry x="10" y="40" width="290" height="780" as="geometry" />
        </mxCell>
        <mxCell id="ThEpB_MVJTsAIfFqs4QM-65" value="SN-WP-Private-App-01 subnet" style="points=[[0,0],[0.25,0],[0.5,0],[0.75,0],[1,0],[1,0.25],[1,0.5],[1,0.75],[1,1],[0.75,1],[0.5,1],[0.25,1],[0,1],[0,0.75],[0,0.5],[0,0.25]];outlineConnect=0;gradientColor=none;html=1;whiteSpace=wrap;fontSize=12;fontStyle=0;container=1;pointerEvents=0;collapsible=0;recursiveResize=0;shape=mxgraph.aws4.group;grIcon=mxgraph.aws4.group_security_group;grStroke=0;strokeColor=#00A4A6;fillColor=#E6F6F7;verticalAlign=top;align=left;spacingLeft=30;fontColor=#147EBA;dashed=0;" vertex="1" parent="ThEpB_MVJTsAIfFqs4QM-5">
          <mxGeometry x="30" y="310" width="250" height="150" as="geometry" />
        </mxCell>
        <mxCell id="ThEpB_MVJTsAIfFqs4QM-85" value="EFS-WP" style="outlineConnect=0;dashed=0;verticalLabelPosition=bottom;verticalAlign=top;align=center;html=1;shape=mxgraph.aws3.efs_share;fillColor=#E05243;gradientColor=none;" vertex="1" parent="ThEpB_MVJTsAIfFqs4QM-65">
          <mxGeometry x="40" y="52" width="40" height="40" as="geometry" />
        </mxCell>
        <mxCell id="ThEpB_MVJTsAIfFqs4QM-16" value="AZ us-east-1b" style="fillColor=none;strokeColor=#147EBA;dashed=1;verticalAlign=top;fontStyle=0;fontColor=#147EBA;whiteSpace=wrap;html=1;align=right;" vertex="1" parent="ThEpB_MVJTsAIfFqs4QM-5">
          <mxGeometry x="420" y="40" width="290" height="780" as="geometry" />
        </mxCell>
        <mxCell id="ThEpB_MVJTsAIfFqs4QM-31" value="SN-WP-Public-01 subnet" style="sketch=0;outlineConnect=0;html=1;whiteSpace=wrap;fontSize=12;fontStyle=0;shape=mxgraph.aws4.group;grIcon=mxgraph.aws4.group_subnet;strokeColor=#b85450;fillColor=#f8cecc;verticalAlign=top;align=left;spacingLeft=30;dashed=0;opacity=40;" vertex="1" parent="ThEpB_MVJTsAIfFqs4QM-5">
          <mxGeometry x="30" y="70" width="250" height="150" as="geometry" />
        </mxCell>
        <mxCell id="ThEpB_MVJTsAIfFqs4QM-32" value="SN-WP-Public-02 subnet" style="sketch=0;outlineConnect=0;html=1;whiteSpace=wrap;fontSize=12;fontStyle=0;shape=mxgraph.aws4.group;grIcon=mxgraph.aws4.group_subnet;strokeColor=#b85450;fillColor=#f8cecc;verticalAlign=top;align=left;spacingLeft=30;dashed=0;opacity=40;" vertex="1" parent="ThEpB_MVJTsAIfFqs4QM-5">
          <mxGeometry x="440" y="70" width="250" height="150" as="geometry" />
        </mxCell>
        <mxCell id="ThEpB_MVJTsAIfFqs4QM-39" value="" style="edgeStyle=orthogonalEdgeStyle;rounded=0;orthogonalLoop=1;jettySize=auto;html=1;entryX=0.5;entryY=0;entryDx=0;entryDy=0;" edge="1" parent="ThEpB_MVJTsAIfFqs4QM-5" source="ThEpB_MVJTsAIfFqs4QM-34" target="ThEpB_MVJTsAIfFqs4QM-37">
          <mxGeometry relative="1" as="geometry">
            <mxPoint x="360" y="130" as="targetPoint" />
          </mxGeometry>
        </mxCell>
        <mxCell id="ThEpB_MVJTsAIfFqs4QM-34" value="" style="outlineConnect=0;dashed=0;verticalLabelPosition=bottom;verticalAlign=top;align=center;html=1;shape=mxgraph.aws3.application_load_balancer;fillColor=#F58534;gradientColor=none;" vertex="1" parent="ThEpB_MVJTsAIfFqs4QM-5">
          <mxGeometry x="340" y="20" width="40" height="40" as="geometry" />
        </mxCell>
        <mxCell id="ThEpB_MVJTsAIfFqs4QM-40" value="LB-WP-Public" style="text;html=1;align=left;verticalAlign=middle;whiteSpace=wrap;rounded=0;" vertex="1" parent="ThEpB_MVJTsAIfFqs4QM-5">
          <mxGeometry x="380" y="10" width="150" height="20" as="geometry" />
        </mxCell>
        <mxCell id="ThEpB_MVJTsAIfFqs4QM-71" style="edgeStyle=orthogonalEdgeStyle;rounded=0;orthogonalLoop=1;jettySize=auto;html=1;exitX=0.5;exitY=1;exitDx=0;exitDy=0;exitPerimeter=0;entryX=0.5;entryY=0;entryDx=0;entryDy=0;" edge="1" parent="ThEpB_MVJTsAIfFqs4QM-5" source="ThEpB_MVJTsAIfFqs4QM-66" target="ThEpB_MVJTsAIfFqs4QM-69">
          <mxGeometry relative="1" as="geometry" />
        </mxCell>
        <mxCell id="ThEpB_MVJTsAIfFqs4QM-66" value="" style="outlineConnect=0;dashed=0;verticalLabelPosition=bottom;verticalAlign=top;align=center;html=1;shape=mxgraph.aws3.application_load_balancer;fillColor=#F58534;gradientColor=none;" vertex="1" parent="ThEpB_MVJTsAIfFqs4QM-5">
          <mxGeometry x="340" y="260" width="40" height="40" as="geometry" />
        </mxCell>
        <mxCell id="ThEpB_MVJTsAIfFqs4QM-67" value="" style="endArrow=classic;html=1;rounded=0;exitX=1;exitY=0.5;exitDx=0;exitDy=0;exitPerimeter=0;entryX=1;entryY=0.5;entryDx=0;entryDy=0;entryPerimeter=0;" edge="1" parent="ThEpB_MVJTsAIfFqs4QM-5" source="ThEpB_MVJTsAIfFqs4QM-33" target="ThEpB_MVJTsAIfFqs4QM-66">
          <mxGeometry width="50" height="50" relative="1" as="geometry">
            <mxPoint x="330" y="300" as="sourcePoint" />
            <mxPoint x="380" y="250" as="targetPoint" />
            <Array as="points">
              <mxPoint x="540" y="140" />
              <mxPoint x="540" y="240" />
            </Array>
          </mxGeometry>
        </mxCell>
        <mxCell id="ThEpB_MVJTsAIfFqs4QM-68" value="" style="endArrow=classic;html=1;rounded=0;exitX=0;exitY=0.5;exitDx=0;exitDy=0;exitPerimeter=0;entryX=0;entryY=0.5;entryDx=0;entryDy=0;entryPerimeter=0;" edge="1" parent="ThEpB_MVJTsAIfFqs4QM-5" source="ThEpB_MVJTsAIfFqs4QM-30" target="ThEpB_MVJTsAIfFqs4QM-66">
          <mxGeometry width="50" height="50" relative="1" as="geometry">
            <mxPoint x="330" y="300" as="sourcePoint" />
            <mxPoint x="380" y="250" as="targetPoint" />
            <Array as="points">
              <mxPoint x="180" y="140" />
              <mxPoint x="180" y="240" />
            </Array>
          </mxGeometry>
        </mxCell>
        <mxCell id="ThEpB_MVJTsAIfFqs4QM-83" value="SN-WP-Private-App-02 subnet" style="points=[[0,0],[0.25,0],[0.5,0],[0.75,0],[1,0],[1,0.25],[1,0.5],[1,0.75],[1,1],[0.75,1],[0.5,1],[0.25,1],[0,1],[0,0.75],[0,0.5],[0,0.25]];outlineConnect=0;gradientColor=none;html=1;whiteSpace=wrap;fontSize=12;fontStyle=0;container=1;pointerEvents=0;collapsible=0;recursiveResize=0;shape=mxgraph.aws4.group;grIcon=mxgraph.aws4.group_security_group;grStroke=0;strokeColor=#00A4A6;fillColor=#E6F6F7;verticalAlign=top;align=left;spacingLeft=30;fontColor=#147EBA;dashed=0;" vertex="1" parent="ThEpB_MVJTsAIfFqs4QM-5">
          <mxGeometry x="440" y="310" width="250" height="150" as="geometry" />
        </mxCell>
        <mxCell id="ThEpB_MVJTsAIfFqs4QM-74" value="" style="group;strokeColor=none;fillColor=#99FFFF;opacity=30;" vertex="1" connectable="0" parent="ThEpB_MVJTsAIfFqs4QM-5">
          <mxGeometry x="160" y="340" width="400" height="100" as="geometry" />
        </mxCell>
        <mxCell id="ThEpB_MVJTsAIfFqs4QM-69" value="AS-WP-Private group" style="points=[[0,0],[0.25,0],[0.5,0],[0.75,0],[1,0],[1,0.25],[1,0.5],[1,0.75],[1,1],[0.75,1],[0.5,1],[0.25,1],[0,1],[0,0.75],[0,0.5],[0,0.25]];outlineConnect=0;gradientColor=none;html=1;whiteSpace=wrap;fontSize=12;fontStyle=0;container=1;pointerEvents=0;collapsible=0;recursiveResize=0;shape=mxgraph.aws4.groupCenter;grIcon=mxgraph.aws4.group_auto_scaling_group;grStroke=1;strokeColor=#006666;fillColor=none;verticalAlign=top;align=center;fontColor=#009999;dashed=1;spacingTop=25;labelBorderColor=none;" vertex="1" parent="ThEpB_MVJTsAIfFqs4QM-74">
          <mxGeometry width="400" height="100" as="geometry" />
        </mxCell>
        <mxCell id="ThEpB_MVJTsAIfFqs4QM-73" value="WordPress" style="sketch=0;points=[[0,0,0],[0.25,0,0],[0.5,0,0],[0.75,0,0],[1,0,0],[0,1,0],[0.25,1,0],[0.5,1,0],[0.75,1,0],[1,1,0],[0,0.25,0],[0,0.5,0],[0,0.75,0],[1,0.25,0],[1,0.5,0],[1,0.75,0]];outlineConnect=0;fontColor=#232F3E;fillColor=#ED7100;strokeColor=#ffffff;dashed=0;verticalLabelPosition=bottom;verticalAlign=top;align=center;html=1;fontSize=12;fontStyle=0;aspect=fixed;shape=mxgraph.aws4.resourceIcon;resIcon=mxgraph.aws4.ec2;" vertex="1" parent="ThEpB_MVJTsAIfFqs4QM-69">
          <mxGeometry x="320" y="22" width="40" height="40" as="geometry" />
        </mxCell>
        <mxCell id="ThEpB_MVJTsAIfFqs4QM-72" value="WordPress" style="sketch=0;points=[[0,0,0],[0.25,0,0],[0.5,0,0],[0.75,0,0],[1,0,0],[0,1,0],[0.25,1,0],[0.5,1,0],[0.75,1,0],[1,1,0],[0,0.25,0],[0,0.5,0],[0,0.75,0],[1,0.25,0],[1,0.5,0],[1,0.75,0]];outlineConnect=0;fontColor=#232F3E;fillColor=#ED7100;strokeColor=#ffffff;dashed=0;verticalLabelPosition=bottom;verticalAlign=top;align=center;html=1;fontSize=12;fontStyle=0;aspect=fixed;shape=mxgraph.aws4.resourceIcon;resIcon=mxgraph.aws4.ec2;" vertex="1" parent="ThEpB_MVJTsAIfFqs4QM-74">
          <mxGeometry x="40" y="22" width="40" height="40" as="geometry" />
        </mxCell>
        <mxCell id="ThEpB_MVJTsAIfFqs4QM-79" value="" style="group;fillColor=#ffcc99;strokeColor=#36393d;opacity=30;" vertex="1" connectable="0" parent="ThEpB_MVJTsAIfFqs4QM-5">
          <mxGeometry x="160" y="100" width="400" height="100" as="geometry" />
        </mxCell>
        <mxCell id="ThEpB_MVJTsAIfFqs4QM-30" value="Reverse&lt;div&gt;Proxy&lt;/div&gt;" style="sketch=0;points=[[0,0,0],[0.25,0,0],[0.5,0,0],[0.75,0,0],[1,0,0],[0,1,0],[0.25,1,0],[0.5,1,0],[0.75,1,0],[1,1,0],[0,0.25,0],[0,0.5,0],[0,0.75,0],[1,0.25,0],[1,0.5,0],[1,0.75,0]];outlineConnect=0;fontColor=#232F3E;fillColor=#ED7100;strokeColor=#ffffff;dashed=0;verticalLabelPosition=bottom;verticalAlign=top;align=center;html=1;fontSize=12;fontStyle=0;aspect=fixed;shape=mxgraph.aws4.resourceIcon;resIcon=mxgraph.aws4.ec2;" vertex="1" parent="ThEpB_MVJTsAIfFqs4QM-79">
          <mxGeometry x="40" y="20" width="40" height="40" as="geometry" />
        </mxCell>
        <mxCell id="ThEpB_MVJTsAIfFqs4QM-37" value="AS-WP-Public group" style="points=[[0,0],[0.25,0],[0.5,0],[0.75,0],[1,0],[1,0.25],[1,0.5],[1,0.75],[1,1],[0.75,1],[0.5,1],[0.25,1],[0,1],[0,0.75],[0,0.5],[0,0.25]];outlineConnect=0;gradientColor=none;html=1;whiteSpace=wrap;fontSize=12;fontStyle=0;container=0;pointerEvents=0;collapsible=0;recursiveResize=0;shape=mxgraph.aws4.groupCenter;grIcon=mxgraph.aws4.group_auto_scaling_group;grStroke=1;strokeColor=#D86613;fillColor=none;verticalAlign=top;align=center;fontColor=#D86613;dashed=1;spacingTop=25;labelBackgroundColor=default;" vertex="1" parent="ThEpB_MVJTsAIfFqs4QM-79">
          <mxGeometry width="400" height="100" as="geometry" />
        </mxCell>
        <mxCell id="ThEpB_MVJTsAIfFqs4QM-33" value="Reverse&lt;div&gt;Proxy&lt;/div&gt;" style="sketch=0;points=[[0,0,0],[0.25,0,0],[0.5,0,0],[0.75,0,0],[1,0,0],[0,1,0],[0.25,1,0],[0.5,1,0],[0.75,1,0],[1,1,0],[0,0.25,0],[0,0.5,0],[0,0.75,0],[1,0.25,0],[1,0.5,0],[1,0.75,0]];outlineConnect=0;fontColor=#232F3E;fillColor=#ED7100;strokeColor=#ffffff;dashed=0;verticalLabelPosition=bottom;verticalAlign=top;align=center;html=1;fontSize=12;fontStyle=0;aspect=fixed;shape=mxgraph.aws4.resourceIcon;resIcon=mxgraph.aws4.ec2;" vertex="1" parent="ThEpB_MVJTsAIfFqs4QM-79">
          <mxGeometry x="320" y="20" width="40" height="40" as="geometry" />
        </mxCell>
        <mxCell id="ThEpB_MVJTsAIfFqs4QM-80" value="LB-WP-Private" style="text;html=1;align=left;verticalAlign=middle;whiteSpace=wrap;rounded=0;" vertex="1" parent="ThEpB_MVJTsAIfFqs4QM-5">
          <mxGeometry x="320" y="240" width="90" height="20" as="geometry" />
        </mxCell>
        <mxCell id="ThEpB_MVJTsAIfFqs4QM-86" value="EFS-WP" style="outlineConnect=0;dashed=0;verticalLabelPosition=bottom;verticalAlign=top;align=center;html=1;shape=mxgraph.aws3.efs_share;fillColor=#E05243;gradientColor=none;" vertex="1" parent="ThEpB_MVJTsAIfFqs4QM-5">
          <mxGeometry x="610" y="362" width="40" height="40" as="geometry" />
        </mxCell>
        <mxCell id="ThEpB_MVJTsAIfFqs4QM-88" style="edgeStyle=orthogonalEdgeStyle;rounded=0;orthogonalLoop=1;jettySize=auto;html=1;exitX=0;exitY=0.5;exitDx=0;exitDy=0;exitPerimeter=0;entryX=0.89;entryY=0.5;entryDx=0;entryDy=0;entryPerimeter=0;" edge="1" parent="ThEpB_MVJTsAIfFqs4QM-5" source="ThEpB_MVJTsAIfFqs4QM-72" target="ThEpB_MVJTsAIfFqs4QM-85">
          <mxGeometry relative="1" as="geometry" />
        </mxCell>
        <mxCell id="ThEpB_MVJTsAIfFqs4QM-89" style="edgeStyle=orthogonalEdgeStyle;rounded=0;orthogonalLoop=1;jettySize=auto;html=1;exitX=1;exitY=0.5;exitDx=0;exitDy=0;exitPerimeter=0;entryX=0.205;entryY=0.51;entryDx=0;entryDy=0;entryPerimeter=0;" edge="1" parent="ThEpB_MVJTsAIfFqs4QM-5" source="ThEpB_MVJTsAIfFqs4QM-73" target="ThEpB_MVJTsAIfFqs4QM-86">
          <mxGeometry relative="1" as="geometry" />
        </mxCell>
        <mxCell id="ThEpB_MVJTsAIfFqs4QM-18" style="edgeStyle=none;rounded=0;orthogonalLoop=1;jettySize=auto;html=1;exitX=0.5;exitY=0;exitDx=0;exitDy=0;" edge="1" parent="ThEpB_MVJTsAIfFqs4QM-4" source="ThEpB_MVJTsAIfFqs4QM-5" target="ThEpB_MVJTsAIfFqs4QM-5">
          <mxGeometry relative="1" as="geometry" />
        </mxCell>
        <mxCell id="jZVaUwOg5UY3L9NAnvdq-73" value="" style="outlineConnect=0;fontColor=#232F3E;gradientColor=#60A337;gradientDirection=north;fillColor=#277116;strokeColor=#ffffff;dashed=0;verticalLabelPosition=bottom;verticalAlign=top;align=center;html=1;fontSize=12;fontStyle=0;aspect=fixed;shape=mxgraph.aws4.resourceIcon;resIcon=mxgraph.aws4.s3;labelBackgroundColor=none;" parent="ThEpB_MVJTsAIfFqs4QM-4" vertex="1">
          <mxGeometry x="490" y="10" width="40" height="40" as="geometry" />
        </mxCell>
        <mxCell id="ThEpB_MVJTsAIfFqs4QM-63" value="Bucket S3" style="text;html=1;align=left;verticalAlign=middle;whiteSpace=wrap;rounded=0;" vertex="1" parent="ThEpB_MVJTsAIfFqs4QM-4">
          <mxGeometry x="530" width="110" height="20" as="geometry" />
        </mxCell>
        <mxCell id="ThEpB_MVJTsAIfFqs4QM-20" value="" style="sketch=0;points=[[0,0,0],[0.25,0,0],[0.5,0,0],[0.75,0,0],[1,0,0],[0,1,0],[0.25,1,0],[0.5,1,0],[0.75,1,0],[1,1,0],[0,0.25,0],[0,0.5,0],[0,0.75,0],[1,0.25,0],[1,0.5,0],[1,0.75,0]];outlineConnect=0;fontColor=#232F3E;fillColor=#8C4FFF;strokeColor=#ffffff;dashed=0;verticalLabelPosition=bottom;verticalAlign=top;align=center;html=1;fontSize=12;fontStyle=0;aspect=fixed;shape=mxgraph.aws4.resourceIcon;resIcon=mxgraph.aws4.route_53;" vertex="1" parent="jZVaUwOg5UY3L9NAnvdq-71">
          <mxGeometry x="220" y="20" width="40" height="40" as="geometry" />
        </mxCell>
        <mxCell id="ThEpB_MVJTsAIfFqs4QM-22" value="" style="sketch=0;points=[[0,0,0],[0.25,0,0],[0.5,0,0],[0.75,0,0],[1,0,0],[0,1,0],[0.25,1,0],[0.5,1,0],[0.75,1,0],[1,1,0],[0,0.25,0],[0,0.5,0],[0,0.75,0],[1,0.25,0],[1,0.5,0],[1,0.75,0]];outlineConnect=0;fontColor=#232F3E;fillColor=#8C4FFF;strokeColor=#ffffff;dashed=0;verticalLabelPosition=bottom;verticalAlign=top;align=center;html=1;fontSize=12;fontStyle=0;aspect=fixed;shape=mxgraph.aws4.resourceIcon;resIcon=mxgraph.aws4.cloudfront;" vertex="1" parent="jZVaUwOg5UY3L9NAnvdq-71">
          <mxGeometry x="360" y="20" width="40" height="40" as="geometry" />
        </mxCell>
        <mxCell id="ThEpB_MVJTsAIfFqs4QM-28" value="" style="endArrow=none;html=1;rounded=0;exitX=1;exitY=0.5;exitDx=0;exitDy=0;exitPerimeter=0;" edge="1" parent="jZVaUwOg5UY3L9NAnvdq-71" source="ThEpB_MVJTsAIfFqs4QM-22" target="jZVaUwOg5UY3L9NAnvdq-73">
          <mxGeometry width="50" height="50" relative="1" as="geometry">
            <mxPoint x="350" y="180" as="sourcePoint" />
            <mxPoint x="400" y="130" as="targetPoint" />
            <Array as="points">
              <mxPoint x="520" y="40" />
            </Array>
          </mxGeometry>
        </mxCell>
        <mxCell id="ThEpB_MVJTsAIfFqs4QM-29" value="" style="endArrow=none;html=1;rounded=0;exitX=1;exitY=0.5;exitDx=0;exitDy=0;exitPerimeter=0;entryX=0;entryY=0.5;entryDx=0;entryDy=0;entryPerimeter=0;" edge="1" parent="jZVaUwOg5UY3L9NAnvdq-71" source="ThEpB_MVJTsAIfFqs4QM-20" target="ThEpB_MVJTsAIfFqs4QM-22">
          <mxGeometry width="50" height="50" relative="1" as="geometry">
            <mxPoint x="350" y="180" as="sourcePoint" />
            <mxPoint x="400" y="130" as="targetPoint" />
          </mxGeometry>
        </mxCell>
        <mxCell id="ThEpB_MVJTsAIfFqs4QM-35" value="" style="endArrow=classic;html=1;rounded=0;exitX=0.5;exitY=1;exitDx=0;exitDy=0;exitPerimeter=0;" edge="1" parent="jZVaUwOg5UY3L9NAnvdq-71" source="ThEpB_MVJTsAIfFqs4QM-22" target="ThEpB_MVJTsAIfFqs4QM-34">
          <mxGeometry width="50" height="50" relative="1" as="geometry">
            <mxPoint x="350" y="270" as="sourcePoint" />
            <mxPoint x="400" y="220" as="targetPoint" />
          </mxGeometry>
        </mxCell>
        <mxCell id="ThEpB_MVJTsAIfFqs4QM-41" value="CloudFront" style="text;html=1;align=left;verticalAlign=middle;whiteSpace=wrap;rounded=0;" vertex="1" parent="jZVaUwOg5UY3L9NAnvdq-71">
          <mxGeometry x="400" y="10" width="110" height="20" as="geometry" />
        </mxCell>
        <mxCell id="ThEpB_MVJTsAIfFqs4QM-64" value="DNS" style="text;html=1;align=left;verticalAlign=middle;whiteSpace=wrap;rounded=0;" vertex="1" parent="jZVaUwOg5UY3L9NAnvdq-71">
          <mxGeometry x="260" y="10" width="60" height="20" as="geometry" />
        </mxCell>
        <mxCell id="-QjtrjUzRDEMRZ5MF8oH-47" value="Blog WordPress em estrutura &lt;i&gt;&#39;tier three&#39;&lt;/i&gt;" style="text;html=1;resizable=0;points=[];autosize=1;align=left;verticalAlign=top;spacingTop=-4;fontSize=30;fontStyle=1;labelBackgroundColor=none;" parent="1" vertex="1">
          <mxGeometry x="36.5" y="26.5" width="550" height="40" as="geometry" />
        </mxCell>
        <mxCell id="jZVaUwOg5UY3L9NAnvdq-60" value="User" style="outlineConnect=0;fontColor=#232F3E;gradientColor=none;fillColor=#232F3E;strokeColor=none;dashed=0;verticalLabelPosition=bottom;verticalAlign=top;align=center;html=1;fontSize=12;fontStyle=0;aspect=fixed;pointerEvents=1;shape=mxgraph.aws4.user;labelBackgroundColor=none;" parent="1" vertex="1">
          <mxGeometry x="40" y="100" width="40" height="40" as="geometry" />
        </mxCell>
        <mxCell id="ThEpB_MVJTsAIfFqs4QM-27" style="edgeStyle=orthogonalEdgeStyle;rounded=0;orthogonalLoop=1;jettySize=auto;html=1;entryX=0.5;entryY=0;entryDx=0;entryDy=0;entryPerimeter=0;" edge="1" parent="1" source="jZVaUwOg5UY3L9NAnvdq-60" target="ThEpB_MVJTsAIfFqs4QM-20">
          <mxGeometry relative="1" as="geometry" />
        </mxCell>
        <mxCell id="ThEpB_MVJTsAIfFqs4QM-17" value="" style="html=1;verticalLabelPosition=bottom;align=center;labelBackgroundColor=#ffffff;verticalAlign=top;strokeWidth=2;strokeColor=#0080F0;shadow=0;dashed=0;shape=mxgraph.ios7.icons.cloud;" vertex="1" parent="1">
          <mxGeometry x="143" y="90" width="81" height="49" as="geometry" />
        </mxCell>
      </root>
    </mxGraphModel>
  </diagram>
</mxfile>
